<?xml version="1.0" standalone="no"?>
<!DOCTYPE svg PUBLIC "-//W3C//DTD SVG 20010904//EN"
 "http://www.w3.org/TR/2001/REC-SVG-20010904/DTD/svg10.dtd">
<svg version="1.0" xmlns="http://www.w3.org/2000/svg"
 width="609.000000pt" height="609.000000pt" viewBox="0 0 609.000000 609.000000"
 preserveAspectRatio="xMidYMid meet">
<metadata>
Created by potrace 1.11, written by Peter Selinger 2001-2013
</metadata>
<g transform="translate(0.000000,609.000000) scale(0.100000,-0.100000)"
fill="#000000" stroke="none">
<path d="M2985 5891 c-62 -16 -117 -63 -156 -136 -9 -16 -36 -66 -59 -110 -24
-44 -55 -102 -70 -130 -15 -27 -46 -86 -70 -130 -24 -44 -53 -99 -66 -122 -48
-87 -58 -181 -29 -264 9 -24 82 -153 163 -287 81 -133 154 -255 163 -270 38
-64 656 -1084 734 -1212 32 -52 65 -108 75 -125 9 -16 72 -119 138 -229 67
-109 122 -200 122 -202 0 -2 32 -53 70 -114 39 -61 70 -113 70 -116 0 -4 13
-25 29 -49 16 -23 45 -71 65 -106 21 -35 50 -84 65 -109 151 -243 254 -424
268 -469 49 -168 -50 -366 -217 -433 l-65 -26 -375 4 c-206 2 -508 6 -670 9
-162 2 -479 7 -705 10 -808 12 -775 11 -826 33 -130 56 -203 197 -170 329 11
43 344 613 364 621 4 2 7 7 7 12 0 7 274 465 345 576 62 96 158 94 209 -5 7
-15 23 -44 36 -66 111 -194 141 -254 135 -278 -12 -46 -39 -61 -116 -63 -91
-3 -97 -9 -198 -188 -43 -78 -89 -159 -101 -181 -51 -88 -23 -197 61 -245 40
-22 52 -23 569 -34 788 -19 783 -19 827 -1 84 34 141 132 130 224 -6 53 -12
64 -172 336 -154 261 -530 906 -575 985 -21 36 -99 171 -175 300 -76 129 -183
312 -238 405 -55 94 -108 186 -118 205 -74 139 -217 364 -235 371 -52 18 -19
66 -698 -1041 -90 -146 -192 -312 -228 -370 -78 -128 -504 -821 -601 -980 -38
-63 -80 -131 -93 -150 -135 -209 -537 -880 -557 -930 -35 -88 -45 -156 -42
-264 11 -321 219 -566 545 -643 38 -8 236 -11 1335 -17 556 -4 1438 -9 1960
-12 1709 -10 1646 -11 1746 19 323 97 522 403 485 743 -11 106 -42 182 -140
344 -90 150 -198 330 -211 353 -5 9 -163 270 -350 579 -187 309 -356 589 -375
621 -19 33 -40 66 -45 76 -6 9 -26 43 -46 76 -20 33 -148 245 -284 470 -136
226 -333 552 -438 725 -201 334 -457 756 -495 818 -12 20 -25 44 -29 52 -4 8
-17 29 -30 46 -13 17 -23 33 -23 36 0 2 -31 56 -69 119 -38 63 -124 205 -190
315 -67 111 -130 213 -141 227 -42 53 -151 86 -225 68z"/>
</g>
</svg>
